<svg width="48" height="48" viewBox="0 0 48 48" fill="none" xmlns="http://www.w3.org/2000/svg">
<g clip-path="url(#clip0_3_10)">
<rect width="48" height="48" rx="6" fill="#101010"/>
<path d="M18.8342 37.83C19.5368 37.83 19.8882 37.558 19.8882 37.014C19.8882 36.4927 19.5255 35.5633 18.8002 34.226L9.58618 18.824H9.55218C8.53218 17.124 7.71618 15.968 7.10418 15.356V33.308C7.10418 34.9173 7.22885 36.0733 7.47818 36.776C7.75018 37.4787 8.30551 37.83 9.14418 37.83V38H4.72418V37.83C5.56285 37.83 6.10685 37.4787 6.35618 36.776C6.62818 36.0733 6.76418 34.9173 6.76418 33.308V15.05C6.12951 14.5513 5.44951 14.302 4.72418 14.302V14.132H11.3542V14.302C10.6742 14.302 10.3342 14.5853 10.3342 15.152C10.3342 15.696 10.6968 16.6367 11.4222 17.974L20.6022 33.308H20.6362C21.5428 34.872 22.2795 35.96 22.8462 36.572V18.824C22.8462 17.2147 22.7102 16.0587 22.4382 15.356C22.1888 14.6533 21.6448 14.302 20.8062 14.302V14.132H25.2262V14.302C24.3875 14.302 23.8322 14.6533 23.5602 15.356C23.3108 16.0587 23.1862 17.2147 23.1862 18.824V36.912C23.8435 37.524 24.5235 37.83 25.2262 37.83V38H18.8342V37.83ZM27.2691 37.83C28.1078 37.83 28.6518 37.4787 28.9011 36.776C29.1731 36.0733 29.3091 34.9173 29.3091 33.308V18.824C29.3091 17.2147 29.1731 16.0587 28.9011 15.356C28.6518 14.6533 28.1078 14.302 27.2691 14.302V14.132H36.4491C39.2144 14.132 41.2091 14.4833 42.4331 15.186C43.6798 15.866 44.3031 17.0787 44.3031 18.824C44.3031 20.0027 43.8611 21.0113 42.9771 21.85C42.1158 22.6887 40.8578 23.244 39.2031 23.516C41.2204 23.8333 42.7958 24.6267 43.9291 25.896C45.0624 27.1427 45.6291 28.888 45.6291 31.132C45.6291 33.4893 44.7564 35.28 43.0111 36.504C41.2658 37.728 38.6818 38.34 35.2591 38.34C34.5111 38.34 33.7178 38.2833 32.8791 38.17C32.6978 38.1473 32.3351 38.1133 31.7911 38.068C31.2698 38.0227 30.7258 38 30.1591 38H27.2691V37.83ZM31.3491 33.716C31.3491 35.212 31.7684 36.3 32.6071 36.98C33.4458 37.66 34.3638 38 35.3611 38C37.8771 38 39.7584 37.4107 41.0051 36.232C42.2744 35.0533 42.9091 33.3533 42.9091 31.132C42.9091 28.6387 42.3198 26.7687 41.1411 25.522C39.9624 24.2753 38.4778 23.652 36.6871 23.652C35.5538 23.652 34.4884 23.3913 33.4911 22.87C32.4938 22.3487 31.7798 21.3513 31.3491 19.878V33.716ZM31.3491 17.158C31.3491 21.2607 33.1624 23.312 36.7891 23.312H37.1971C38.6478 23.312 39.7358 22.8813 40.4611 22.02C41.2091 21.136 41.5831 20.0707 41.5831 18.824C41.5831 17.3053 41.1524 16.206 40.2911 15.526C39.4524 14.8233 38.1378 14.472 36.3471 14.472H31.3491V17.158Z" fill="#F9FAFB"/>
</g>
<defs>
<clipPath id="clip0_3_10">
<rect width="48" height="48" rx="6" fill="white"/>
</clipPath>
</defs>
</svg>
