<svg width="1584" height="396" viewBox="0 0 1584 396" fill="none" xmlns="http://www.w3.org/2000/svg">
<rect width="1584" height="396" fill="#101010"/>
<path d="M474.638 259.22C477.862 259.22 479.474 257.972 479.474 255.476C479.474 253.084 477.81 248.82 474.482 242.684L432.206 172.016H432.05C427.369 164.216 423.626 158.912 420.818 156.104V238.472C420.818 245.856 421.39 251.16 422.534 254.384C423.782 257.608 426.33 259.22 430.178 259.22V260H409.898V259.22C413.746 259.22 416.242 257.608 417.386 254.384C418.634 251.16 419.258 245.856 419.258 238.472V154.7C416.346 152.412 413.226 151.268 409.898 151.268V150.488H440.318V151.268C437.198 151.268 435.638 152.568 435.638 155.168C435.638 157.664 437.302 161.98 440.63 168.116L482.75 238.472H482.906C487.066 245.648 490.446 250.64 493.046 253.448V172.016C493.046 164.632 492.422 159.328 491.174 156.104C490.03 152.88 487.534 151.268 483.686 151.268V150.488H503.966V151.268C500.118 151.268 497.57 152.88 496.322 156.104C495.178 159.328 494.606 164.632 494.606 172.016V255.008C497.622 257.816 500.742 259.22 503.966 259.22V260H474.638V259.22ZM576.638 259.22C579.862 259.22 581.474 257.972 581.474 255.476C581.474 252.876 579.758 248.456 576.326 242.216L556.202 207.116L537.794 238.628C535.298 243.1 533.426 246.688 532.178 249.392C531.034 251.992 530.462 254.072 530.462 255.632C530.462 258.024 532.074 259.22 535.298 259.22V260H514.862V259.22C518.398 259.22 521.622 257.816 524.534 255.008C527.446 252.2 530.774 247.676 534.518 241.436L536.078 238.628L536.234 238.472L555.266 205.556L535.922 172.016C531.554 164.528 527.862 159.224 524.846 156.104C521.934 152.88 518.606 151.268 514.862 151.268V150.488H544.658V151.268C541.33 151.268 539.666 152.516 539.666 155.012C539.666 157.3 541.174 161.304 544.19 167.024L565.406 203.996L584.126 171.86C586.622 167.388 588.442 163.852 589.586 161.252C590.834 158.548 591.458 156.416 591.458 154.856C591.458 152.464 589.846 151.268 586.622 151.268V150.488H607.058V151.268C603.522 151.268 600.298 152.672 597.386 155.48C594.474 158.288 591.146 162.812 587.402 169.052L585.842 171.86L585.686 172.016L566.342 205.4L585.374 238.472C589.638 245.96 593.278 251.316 596.294 254.54C599.414 257.66 603.002 259.22 607.058 259.22V260H576.638V259.22ZM643.427 259.22C647.275 259.22 649.771 257.608 650.915 254.384C652.163 251.16 652.787 245.856 652.787 238.472V172.016C652.787 166.192 652.215 161.876 651.071 159.068C650.031 156.156 648.419 154.284 646.235 153.452C644.155 152.516 641.139 152.048 637.187 152.048H634.379C630.427 152.048 627.359 152.516 625.175 153.452C623.095 154.284 621.483 156.156 620.339 159.068C619.299 161.876 618.779 166.192 618.779 172.016H617.999V150.488H696.935V172.016H696.155C696.155 166.192 695.583 161.876 694.439 159.068C693.399 156.156 691.787 154.284 689.603 153.452C687.523 152.516 684.507 152.048 680.555 152.048H677.747C673.795 152.048 670.727 152.516 668.543 153.452C666.463 154.284 664.851 156.156 663.707 159.068C662.667 161.876 662.147 166.192 662.147 172.016V238.472C662.147 244.296 662.667 248.716 663.707 251.732C664.851 254.644 666.515 256.62 668.699 257.66C670.883 258.7 673.899 259.22 677.747 259.22V260H643.427V259.22ZM739.112 259.22C742.96 259.22 745.456 257.608 746.6 254.384C747.848 251.16 748.472 245.856 748.472 238.472V172.016C748.472 164.632 747.848 159.328 746.6 156.104C745.456 152.88 742.96 151.268 739.112 151.268V150.488H781.232C793.92 150.488 803.072 152.1 808.688 155.324C814.408 158.444 817.268 164.008 817.268 172.016C817.268 177.424 815.24 182.052 811.184 185.9C807.232 189.748 801.46 192.296 793.868 193.544C803.124 195 810.352 198.64 815.552 204.464C820.752 210.184 823.352 218.192 823.352 228.488C823.352 239.304 819.348 247.52 811.34 253.136C803.332 258.752 791.476 261.56 775.772 261.56C772.34 261.56 768.7 261.3 764.852 260.78C764.02 260.676 762.356 260.52 759.86 260.312C757.468 260.104 754.972 260 752.372 260H739.112V259.22ZM757.832 240.344C757.832 247.208 759.756 252.2 763.604 255.32C767.452 258.44 771.664 260 776.24 260C787.784 260 796.416 257.296 802.136 251.888C807.96 246.48 810.872 238.68 810.872 228.488C810.872 217.048 808.168 208.468 802.76 202.748C797.352 197.028 790.54 194.168 782.324 194.168C777.124 194.168 772.236 192.972 767.66 190.58C763.084 188.188 759.808 183.612 757.832 176.852V240.344ZM757.832 164.372C757.832 183.196 766.152 192.608 782.792 192.608H784.664C791.32 192.608 796.312 190.632 799.64 186.68C803.072 182.624 804.788 177.736 804.788 172.016C804.788 165.048 802.812 160.004 798.86 156.884C795.012 153.66 788.98 152.048 780.764 152.048H757.832V164.372ZM832.651 259.22C836.499 259.22 838.995 257.608 840.139 254.384C841.387 251.16 842.011 245.856 842.011 238.472V172.016C842.011 164.632 841.387 159.328 840.139 156.104C838.995 152.88 836.499 151.268 832.651 151.268V150.488H860.731V151.268C856.883 151.268 854.335 152.88 853.087 156.104C851.943 159.328 851.371 164.632 851.371 172.016V238.472C851.371 244.296 851.891 248.664 852.931 251.576C854.075 254.384 855.687 256.256 857.767 257.192C859.951 258.024 863.019 258.44 866.971 258.44H894.895C898.847 258.44 901.863 258.024 903.943 257.192C906.127 256.256 907.739 254.384 908.779 251.576C909.923 248.664 910.495 244.296 910.495 238.472H911.275V260H832.651V259.22ZM997.883 205.244C997.883 194.324 996.583 184.86 993.983 176.852C991.383 184.86 990.083 194.324 990.083 205.244C990.083 215.644 991.643 224.276 994.763 231.14C996.843 223.756 997.883 215.124 997.883 205.244ZM914.423 205.244C914.423 193.076 916.347 182.936 920.195 174.824C924.147 166.608 929.555 160.524 936.419 156.572C943.387 152.516 951.447 150.488 960.599 150.488H964.187C976.355 150.488 986.287 153.868 993.983 160.628C1001.68 153.868 1011.61 150.488 1023.78 150.488H1027.37C1036.1 150.488 1043.59 152.412 1049.83 156.26C1056.07 160.004 1060.8 165.204 1064.03 171.86C1067.25 178.412 1068.86 185.9 1068.86 194.324H1056.38C1056.38 181.844 1053.89 171.704 1048.9 163.904C1043.9 156 1036.88 152.048 1027.84 152.048H1023.31C1018.42 152.048 1013.9 153.244 1009.74 155.636C1005.58 157.924 1002.04 161.356 999.131 165.932C1006.62 175.396 1010.36 188.5 1010.36 205.244C1010.36 219.908 1007.4 231.868 1001.47 241.124C1008.13 247.78 1017.49 251.108 1029.55 251.108C1036.21 251.108 1041.51 249.704 1045.46 246.896C1049.52 243.984 1052.33 240.552 1053.89 236.6C1055.55 232.648 1056.38 228.956 1056.38 225.524V225.056C1056.38 217.672 1055.76 212.368 1054.51 209.144C1053.37 205.92 1050.87 204.308 1047.02 204.308V203.528H1075.1V204.308C1071.26 204.308 1068.71 205.92 1067.46 209.144C1066.32 212.368 1065.74 217.672 1065.74 225.056V238.472C1065.74 245.856 1066.32 251.16 1067.46 254.384C1068.71 257.608 1071.26 259.22 1075.1 259.22V260H1047.02V259.22C1050.87 259.22 1053.37 257.608 1054.51 254.384C1055.76 251.16 1056.38 245.856 1056.38 238.472V238.16C1054.72 244.4 1051.44 249.6 1046.56 253.76C1041.77 257.92 1034.7 260 1025.34 260C1012.96 260 1002.67 256.516 994.451 249.548C986.547 256.516 976.459 260 964.187 260H960.599C951.447 260 943.387 258.024 936.419 254.072C929.555 250.016 924.147 243.932 920.195 235.82C916.347 227.604 914.423 217.412 914.423 205.244ZM926.903 205.244C926.903 216.996 928.307 226.876 931.115 234.884C934.027 242.788 937.979 248.716 942.971 252.668C947.963 256.516 953.683 258.44 960.131 258.44H964.655C969.647 258.44 974.223 257.244 978.383 254.852C982.647 252.46 986.235 248.872 989.147 244.088C981.451 234.52 977.603 221.572 977.603 205.244C977.603 188.5 981.347 175.396 988.835 165.932C985.923 161.356 982.387 157.924 978.227 155.636C974.067 153.244 969.543 152.048 964.655 152.048H960.131C953.683 152.048 947.963 154.024 942.971 157.976C937.979 161.824 934.027 167.752 931.115 175.76C928.307 183.664 926.903 193.492 926.903 205.244ZM1128 260C1118.33 260 1110.11 257.816 1103.35 253.448C1096.59 249.08 1091.5 243.412 1088.06 236.444C1084.63 229.476 1082.92 222.196 1082.92 214.604H1084.48C1084.48 221.572 1086.3 227.812 1089.94 233.324C1093.68 238.836 1098.93 243.204 1105.69 246.428C1112.56 249.548 1120.41 251.108 1129.25 251.108C1138.5 251.108 1146.46 249.548 1153.12 246.428C1159.88 243.308 1163.26 237.952 1163.26 230.36C1163.26 225.784 1161.75 222.248 1158.73 219.752C1155.82 217.256 1152.13 215.488 1147.66 214.448C1143.29 213.304 1137.36 212.212 1129.87 211.172C1120.72 209.82 1113.34 208.364 1107.72 206.804C1102.21 205.244 1097.48 202.488 1093.52 198.536C1089.57 194.584 1087.6 189.02 1087.6 181.844V181.688C1087.7 176.8 1089.36 171.964 1092.59 167.18C1095.81 162.292 1100.44 158.288 1106.47 155.168C1112.61 152.048 1119.63 150.488 1127.53 150.488H1131.12C1140.38 150.488 1148.23 152.412 1154.68 156.26C1161.12 160.004 1165.96 165.204 1169.18 171.86C1172.51 178.412 1174.18 185.9 1174.18 194.324H1161.7C1161.7 181.74 1159.1 171.548 1153.9 163.748C1148.8 155.948 1141.36 152.048 1131.59 152.048H1127.06C1121.66 152.048 1116.87 153.556 1112.71 156.572C1108.66 159.588 1105.54 163.436 1103.35 168.116C1101.17 172.692 1100.08 177.216 1100.08 181.688C1100.08 186.264 1101.53 189.8 1104.44 192.296C1107.36 194.792 1110.94 196.56 1115.21 197.6C1119.58 198.64 1125.56 199.68 1133.15 200.72C1142.4 201.968 1149.79 203.372 1155.3 204.932C1160.92 206.388 1165.7 209.092 1169.65 213.044C1173.71 216.996 1175.74 222.716 1175.74 230.204V230.36C1175.63 240.032 1171.16 247.416 1162.32 252.512C1153.58 257.504 1142.14 260 1128 260Z" fill="#F9FAFB"/>
</svg>
